<?xml version="1.0" encoding="iso-8859-1"?>
<!-- Generator: Adobe Illustrator 19.0.0, SVG Export Plug-In . SVG Version: 6.00 Build 0)  -->
<svg version="1.1" id="Layer_1" xmlns="http://www.w3.org/2000/svg" xmlns:xlink="http://www.w3.org/1999/xlink" x="0px" y="0px"
	 viewBox="0 0 330 330" style="enable-background:new 0 0 330 330;" xml:space="preserve">
<g id="XMLID_105_">
	<path id="XMLID_106_" d="M165,0C74.019,0,0,74.019,0,165s74.019,165,165,165s165-74.019,165-165S255.981,0,165,0z M165,300
		c-74.439,0-135-60.561-135-135S90.561,30,165,30s135,60.561,135,135S239.439,300,165,300z"/>
	<path id="XMLID_109_" d="M194.25,82.5c-8.284,0-15,6.716-15,15v135c0,8.284,6.716,15,15,15s15-6.716,15-15v-135
		C209.25,89.216,202.534,82.5,194.25,82.5z"/>
	<path id="XMLID_110_" d="M135.75,82.5c-8.284,0-15,6.716-15,15v135c0,8.284,6.716,15,15,15s15-6.716,15-15v-135
		C150.75,89.216,144.034,82.5,135.75,82.5z"/>
</g>
</svg>