<?xml version="1.0" encoding="iso-8859-1"?>
<!-- Generator: Adobe Illustrator 19.0.0, SVG Export Plug-In . SVG Version: 6.00 Build 0)  -->
<svg version="1.1" id="Layer_1" xmlns="http://www.w3.org/2000/svg" xmlns:xlink="http://www.w3.org/1999/xlink" x="0px" y="0px"
	 viewBox="0 0 330.001 330.001" style="enable-background:new 0 0 330.001 330.001;" xml:space="preserve">
<path id="XMLID_473_" d="M320.741,1.142c-5.603-2.322-12.057-1.039-16.347,3.252L180,128.786V15c0-6.067-3.654-11.537-9.26-13.858
	c-5.602-2.322-12.057-1.039-16.347,3.252L30,128.786V15c0-8.284-6.716-15-15-15S0,6.716,0,15v300c0,8.284,6.716,15,15,15
	s15-6.716,15-15V201.212l124.394,124.395c2.869,2.87,6.706,4.394,10.609,4.394c1.933,0,3.882-0.374,5.737-1.142
	c5.605-2.322,9.26-7.792,9.26-13.858V201.212l124.394,124.395c2.869,2.87,6.706,4.394,10.609,4.394c1.933,0,3.882-0.374,5.737-1.142
	c5.605-2.322,9.26-7.792,9.26-13.858V15C330,8.933,326.346,3.464,320.741,1.142z M150,278.787L36.213,164.999L150,51.213V278.787z
	 M300,278.787L186.213,164.999L300,51.213V278.787z"/>
</svg>
